<svg version="1.1" id="Layer_1" xmlns="http://www.w3.org/2000/svg" xmlns:xlink="http://www.w3.org/1999/xlink" x="0px" y="0px"
	 width="100%" viewBox="0 0 1171 630" enable-background="new 0 0 1171 630" xml:space="preserve">
<path fill="#FFFFFF" opacity="1.000000" stroke="none" 
	d="
M864.000000,631.000000 
	C576.000000,631.000000 288.500031,631.000000 1.000039,631.000000 
	C1.000026,421.000031 1.000026,211.000061 1.000013,1.000067 
	C391.333282,1.000045 781.666565,1.000045 1172.000000,1.000022 
	C1172.000000,210.999939 1172.000000,420.999878 1172.000000,630.999878 
	C1069.500000,631.000000 967.000000,631.000000 864.000000,631.000000 
M1085.595215,359.194977 
	C1085.727295,358.826477 1085.859375,358.458008 1086.328125,357.449188 
	C1092.573853,343.269775 1096.031494,328.420715 1097.329468,312.230652 
	C1097.546143,309.252899 1097.947998,306.275360 1097.951538,303.297363 
	C1097.993530,266.917328 1098.000732,230.537140 1097.934448,194.157150 
	C1097.928833,191.035355 1097.335205,187.914642 1097.057495,183.929932 
	C1096.381104,178.817978 1095.948486,173.659760 1094.988770,168.601562 
	C1088.780762,135.883408 1073.182251,108.941238 1045.090088,90.317619 
	C1014.664246,70.146881 980.762573,66.600449 945.962952,73.384766 
	C887.900146,84.704353 855.176819,131.053024 852.374023,185.664810 
	C850.395203,224.222595 851.732666,262.954895 851.748169,301.609222 
	C851.758545,327.468719 857.706360,351.819885 871.406982,373.961243 
	C873.504089,377.350464 876.609314,380.115875 879.524475,383.731964 
	C890.374084,397.420135 903.814270,407.783020 919.654358,415.096985 
	C941.375793,425.126648 964.259155,427.888031 987.867188,425.995209 
	C1019.554443,423.454590 1046.785889,411.500397 1067.901489,387.244629 
	C1075.187988,378.874542 1081.748047,369.887299 1085.009033,359.007812 
	C1085.009033,359.007812 1085.001831,359.078369 1085.595215,359.194977 
M262.702972,121.178734 
	C272.401947,121.178734 282.100922,121.178734 291.814514,121.178734 
	C291.814514,105.563728 291.814514,89.911537 291.814514,74.326202 
	C271.227112,74.326202 250.996384,74.326202 229.861832,74.250404 
	C177.414459,74.250404 124.967087,74.250404 72.342407,74.250404 
	C72.342407,190.734558 72.342407,306.752930 72.342407,422.634216 
	C88.736549,422.634216 104.797211,422.634216 121.226685,422.634216 
	C121.226685,373.681458 121.226685,325.094513 121.226685,276.042908 
	C169.335175,276.042908 217.069656,276.042908 264.798187,276.042908 
	C264.798187,260.370789 264.798187,245.169861 264.798187,229.497772 
	C216.666245,229.497772 168.934952,229.497772 121.282661,229.497772 
	C121.282661,193.091568 121.282661,157.164337 121.282661,120.909302 
	C123.530838,120.909302 125.500526,120.910797 127.470207,120.909073 
	C172.294266,120.869820 217.118317,120.830208 262.702972,121.178734 
M462.038696,274.004456 
	C462.038696,246.452408 462.038696,218.900375 462.038696,189.968948 
	C463.435394,192.607193 464.265442,193.973343 464.909821,195.422073 
	C478.002533,224.858200 491.031464,254.322815 504.189270,283.729767 
	C506.530579,288.962402 509.389435,293.963470 512.105957,299.783752 
	C522.679382,323.453796 533.313599,347.097076 543.747620,370.828430 
	C545.023987,373.731598 546.508484,374.799072 549.649414,374.728088 
	C558.477051,374.528625 567.317749,374.818573 576.139343,374.513092 
	C577.767212,374.456726 580.127075,372.876251 580.797791,371.389618 
	C586.671936,358.370392 592.239136,345.212677 598.490723,331.681183 
	C619.445435,283.653778 640.400208,235.626343 661.354919,187.598923 
	C661.627258,187.680771 661.899658,187.762619 662.171997,187.844467 
	C662.171997,189.655655 662.171997,191.466827 662.171997,193.278015 
	C662.171997,244.087067 662.162231,294.896118 662.210266,345.705139 
	C662.212097,347.604980 662.775757,349.504303 663.030212,352.428345 
	C663.030212,375.823273 663.030212,399.218201 663.030212,422.688477 
	C679.226562,422.688477 694.917664,422.688477 710.786682,422.688477 
	C710.786682,402.450134 710.786682,382.523743 710.967163,361.599243 
	C710.967163,265.845978 710.967163,170.092743 710.967163,74.035194 
	C696.780334,74.035194 683.141418,74.179237 669.509216,73.940186 
	C665.815430,73.875412 664.038391,74.952339 662.511719,78.406860 
	C637.790344,134.345871 612.910645,190.214905 588.056946,246.095444 
	C579.616150,265.073639 571.148193,284.039703 562.356018,303.766663 
	C557.022095,291.811279 551.973022,280.522034 546.946289,269.222839 
	C518.597351,205.499634 490.228546,141.785202 461.986145,78.014824 
	C460.635162,74.964325 459.144592,73.805717 455.775970,73.946846 
	C448.789185,74.239563 441.781586,74.035194 434.782532,74.035194 
	C427.839905,74.035194 420.897278,74.035194 413.952576,74.035194 
	C413.879425,75.329193 413.809540,75.988899 413.809479,76.648605 
	C413.804352,132.640900 413.802460,188.633194 413.819977,244.625488 
	C413.820343,245.772980 414.051239,246.920410 414.087494,248.992722 
	C414.087494,306.877838 414.087494,364.762939 414.087494,422.619324 
	C430.348724,422.619324 446.047394,422.619324 461.817413,422.619324 
	C461.817413,373.126587 461.817413,324.016693 462.038696,274.004456 
M810.706116,508.500061 
	C810.706116,494.102814 810.706116,479.705566 810.706116,465.343323 
	C805.579163,465.343323 801.309692,465.343323 796.325012,465.343323 
	C796.325012,490.025269 796.325012,514.463928 796.325012,538.902527 
	C794.483398,537.697449 793.554016,536.378174 792.697083,535.013367 
	C778.815552,512.904724 764.970520,490.773102 751.008118,468.715729 
	C750.065857,467.227142 748.376709,465.499969 746.820801,465.257355 
	C743.446899,464.731201 739.934143,465.095215 736.304871,465.095215 
	C736.304871,499.251404 736.304871,532.947937 736.304871,566.628662 
	C741.001953,566.628662 745.391479,566.628662 750.305298,566.628662 
	C750.305298,542.006226 750.305298,517.719543 750.305298,492.450592 
	C751.715332,494.657104 752.523499,495.914001 753.324036,497.175781 
	C767.311768,519.222595 781.272522,541.286682 795.343201,563.280396 
	C796.301025,564.777527 797.961548,566.566406 799.507019,566.796326 
	C803.033813,567.321045 806.692078,566.962097 810.705933,566.962097 
	C810.705933,547.409058 810.705933,528.454529 810.706116,508.500061 
M564.184570,551.622375 
	C565.845154,546.448669 568.675964,541.333313 568.937744,536.089783 
	C569.609314,522.638672 569.756165,509.094330 568.965576,495.654755 
	C568.043030,479.973511 557.799011,468.315216 542.336731,466.422821 
	C528.231018,464.696442 513.860840,465.130646 499.382202,464.604462 
	C499.382202,499.289734 499.382202,532.999817 499.382202,566.839539 
	C512.005371,566.839539 524.339661,567.332214 536.614990,566.693176 
	C547.647217,566.118835 557.333618,561.909241 564.184570,551.622375 
M923.311157,464.077362 
	C902.181641,464.104919 888.475159,475.944550 886.925049,497.031555 
	C885.939758,510.435242 886.134277,524.012329 886.967773,537.439148 
	C887.839844,551.486328 895.482849,561.606445 909.055908,565.911621 
	C923.085999,570.361816 936.590820,569.023132 947.418457,557.886963 
	C960.125488,544.817871 957.474487,528.298279 957.416565,512.340271 
	C945.495728,512.340271 934.233154,512.340271 922.906494,512.340271 
	C922.906494,516.970215 922.906494,521.333740 922.906494,526.059387 
	C929.762207,526.059387 936.201111,526.059387 943.332275,526.059387 
	C942.876587,530.405762 942.821289,534.393860 941.989197,538.212769 
	C939.593933,549.205811 931.093445,555.008179 919.435974,553.967651 
	C909.302856,553.063293 901.448914,545.298096 901.106384,534.875549 
	C900.712646,522.896484 900.583496,510.874512 901.129761,498.907257 
	C901.835449,483.448059 915.545044,474.157104 928.899597,479.508240 
	C935.585388,482.187164 939.303955,487.483765 941.347961,493.880493 
	C946.511169,493.880493 951.380371,493.880493 956.294800,493.880493 
	C953.661194,477.300507 941.767151,466.407776 923.311157,464.077362 
M260.942352,567.697693 
	C277.858704,564.014526 288.408722,553.885254 289.645874,537.623718 
	C290.729065,523.386475 290.737274,508.938568 289.674286,494.699188 
	C288.305969,476.369049 273.706055,464.144104 255.125961,464.064880 
	C236.137299,463.983917 221.906082,476.027252 220.013489,494.614044 
	C219.072388,503.856537 219.267609,513.234863 219.309082,522.550110 
	C219.336395,528.688843 219.275558,534.977661 220.523193,540.933472 
	C224.430481,559.585327 238.674057,569.024597 260.942352,567.697693 
M143.583252,467.005524 
	C143.142365,466.397278 142.717957,465.275574 142.258057,465.260803 
	C138.023468,465.125000 133.782761,465.180786 129.125351,465.180786 
	C129.125351,480.465271 129.125351,495.045502 129.125351,509.721802 
	C114.624222,509.721802 100.560699,509.721802 85.925583,509.721802 
	C85.925583,494.733887 85.925583,480.024445 85.925583,465.461884 
	C80.947906,465.461884 76.550186,465.461884 72.231491,465.461884 
	C72.231491,499.431732 72.231491,533.023621 72.231491,566.770081 
	C76.884216,566.770081 81.290222,566.770081 86.139359,566.770081 
	C86.139359,552.455750 86.139359,538.376221 86.139359,524.029175 
	C100.638268,524.029175 114.691811,524.029175 129.231476,524.029175 
	C129.231476,538.332214 129.231476,552.408386 129.231476,566.658569 
	C134.242935,566.658569 138.762817,566.658569 143.606277,566.658569 
	C143.606277,533.509705 143.606277,500.714813 143.583252,467.005524 
M1059.536987,554.586975 
	C1049.638550,554.306091 1040.789551,551.052979 1033.062134,544.530884 
	C1029.965576,548.473633 1027.256592,551.922791 1024.397095,555.563721 
	C1039.795166,567.773071 1056.760254,570.387634 1074.802368,566.492798 
	C1089.715332,563.273438 1097.778564,553.261719 1098.002075,539.311035 
	C1098.244629,524.182007 1091.967896,516.286560 1075.995239,511.704498 
	C1073.602661,511.018127 1071.160400,510.503815 1068.739868,509.915466 
	C1063.415894,508.621460 1058.001709,507.613159 1052.790771,505.962860 
	C1047.146729,504.175446 1043.256348,500.450928 1043.136597,494.059570 
	C1043.016357,487.640930 1045.732666,482.725616 1051.740601,480.143463 
	C1054.294678,479.045746 1057.108276,478.375458 1059.871338,477.971924 
	C1070.283936,476.451416 1079.436523,479.859283 1087.941528,486.076233 
	C1090.717041,482.108276 1093.246826,478.491425 1095.879639,474.727417 
	C1082.279907,465.068207 1067.794922,461.743500 1051.994141,465.549377 
	C1036.542358,469.271240 1028.813965,479.461121 1029.075195,495.006744 
	C1029.319702,509.542084 1036.239380,517.278625 1052.311768,520.943237 
	C1059.593262,522.603455 1066.987793,523.867798 1074.141357,525.960327 
	C1080.757935,527.895813 1083.769653,532.222778 1083.987549,538.258179 
	C1084.211914,544.472168 1081.304565,549.680847 1075.083130,551.860229 
	C1070.469727,553.476379 1065.380249,553.734009 1059.536987,554.586975 
M378.922211,466.849579 
	C378.282166,466.269318 377.661224,465.213623 376.998932,465.186981 
	C373.061951,465.028870 369.115417,465.108826 365.167969,465.108826 
	C365.167969,499.383881 365.167969,533.079285 365.167969,566.706604 
	C386.774963,566.706604 408.013245,566.706604 429.300079,566.706604 
	C429.300079,562.169617 429.300079,557.942322 429.300079,553.192993 
	C412.396484,553.192993 395.839264,553.192993 378.941162,553.192993 
	C378.941162,524.374268 378.941162,496.082764 378.922211,466.849579 
M645.730347,566.987793 
	C649.812256,566.987793 653.894226,566.987793 657.759277,566.987793 
	C657.759277,532.642883 657.759277,499.054474 657.759277,465.432434 
	C653.044128,465.432434 648.654358,465.432434 644.196533,465.432434 
	C644.113525,466.406494 644.009705,467.057434 644.009521,467.708405 
	C644.000793,499.698639 643.993408,531.688843 644.032898,563.679016 
	C644.034241,564.751343 644.518250,565.822998 645.730347,566.987793 
z"/>
<path fill="#013499" opacity="1.000000" stroke="none" 
	d="
M512.009338,299.071472 
	C509.389435,293.963470 506.530579,288.962402 504.189270,283.729767 
	C491.031464,254.322815 478.002533,224.858200 464.909821,195.422073 
	C464.265442,193.973343 463.435394,192.607193 462.038696,189.968948 
	C462.038696,218.900375 462.038696,246.452408 461.632690,274.300110 
	C445.542664,265.753143 429.858643,256.910522 414.174591,248.067871 
	C414.051239,246.920410 413.820343,245.772980 413.819977,244.625488 
	C413.802460,188.633194 413.804352,132.640900 413.809479,76.648605 
	C413.809540,75.988899 413.879425,75.329193 413.952576,74.035194 
	C420.897278,74.035194 427.839905,74.035194 434.782532,74.035194 
	C441.781586,74.035194 448.789185,74.239563 455.775970,73.946846 
	C459.144592,73.805717 460.635162,74.964325 461.986145,78.014824 
	C490.228546,141.785202 518.597351,205.499634 546.946289,269.222839 
	C551.973022,280.522034 557.022095,291.811279 562.356018,303.766663 
	C571.148193,284.039703 579.616150,265.073639 588.056946,246.095444 
	C612.910645,190.214905 637.790344,134.345871 662.511719,78.406860 
	C664.038391,74.952339 665.815430,73.875412 669.509216,73.940186 
	C683.141418,74.179237 696.780334,74.035194 710.967163,74.035194 
	C710.967163,170.092743 710.967163,265.845978 710.473511,361.997620 
	C694.345764,358.731964 678.711731,355.067932 663.077637,351.403870 
	C662.775757,349.504303 662.212097,347.604980 662.210266,345.705139 
	C662.162231,294.896118 662.171997,244.087067 662.171997,193.278015 
	C662.171997,191.466827 662.171997,189.655655 662.171997,187.844467 
	C661.899658,187.762619 661.627258,187.680771 661.354919,187.598923 
	C640.400208,235.626343 619.445435,283.653778 597.857971,331.747131 
	C580.905579,325.845642 564.519409,320.052338 548.288086,313.853699 
	C536.092163,309.196106 524.094971,304.017914 512.009338,299.071472 
z"/>
<path fill="#023499" opacity="1.000000" stroke="none" 
	d="
M879.248291,383.169800 
	C876.609314,380.115875 873.504089,377.350464 871.406982,373.961243 
	C857.706360,351.819885 851.758545,327.468719 851.748169,301.609222 
	C851.732666,262.954895 850.395203,224.222595 852.374023,185.664810 
	C855.176819,131.053024 887.900146,84.704353 945.962952,73.384766 
	C980.762573,66.600449 1014.664246,70.146881 1045.090088,90.317619 
	C1073.182251,108.941238 1088.780762,135.883408 1094.988770,168.601562 
	C1095.948486,173.659760 1096.381104,178.817978 1096.966064,184.848511 
	C1096.923950,207.718735 1096.992676,229.670395 1097.016724,251.622070 
	C1097.039185,272.073395 1097.014038,292.524780 1097.009766,312.976135 
	C1096.031494,328.420715 1092.573853,343.269775 1085.915405,357.843597 
	C1085.335693,358.518127 1085.168823,358.798248 1085.001831,359.078369 
	C1085.001831,359.078369 1085.009033,359.007812 1084.643066,358.977570 
	C1057.802612,366.528442 1031.071899,373.131439 1003.681702,376.194855 
	C978.425598,379.019623 953.079224,381.252838 927.715332,382.818756 
	C911.613770,383.812897 895.407593,383.111084 879.248291,383.169800 
M1023.771851,360.270508 
	C1024.501953,359.386047 1025.182617,358.454529 1025.969849,357.624115 
	C1039.007324,343.872467 1045.532837,327.178772 1045.875977,308.581604 
	C1046.527466,273.262726 1046.337524,237.926819 1046.307617,202.598145 
	C1046.301270,195.131790 1046.039062,187.582016 1044.927979,180.216476 
	C1042.000732,160.809082 1033.576172,144.028320 1017.276917,132.658432 
	C995.218628,117.271248 970.703552,115.531654 946.137756,125.004807 
	C917.010498,136.236923 904.364563,160.340637 903.287415,189.863220 
	C901.945251,226.646835 902.823853,263.513428 902.878418,300.343994 
	C902.886780,305.984985 903.177979,311.698395 904.099670,317.251923 
	C907.215820,336.028137 915.126770,352.144196 930.448181,364.238708 
	C954.423096,383.164246 998.436035,383.694641 1023.771851,360.270508 
z"/>
<path fill="#E24508" opacity="1.000000" stroke="none" 
	d="
M261.942383,120.790665 
	C217.118317,120.830208 172.294266,120.869820 127.470207,120.909073 
	C125.500526,120.910797 123.530838,120.909302 121.282661,120.909302 
	C121.282661,157.164337 121.282661,193.091568 121.282661,229.497772 
	C168.934952,229.497772 216.666245,229.497772 264.798187,229.497772 
	C264.798187,245.169861 264.798187,260.370789 264.798187,276.042908 
	C217.069656,276.042908 169.335175,276.042908 121.226685,276.042908 
	C121.226685,325.094513 121.226685,373.681458 121.226685,422.634216 
	C104.797211,422.634216 88.736549,422.634216 72.342407,422.634216 
	C72.342407,306.752930 72.342407,190.734558 72.342407,74.250404 
	C124.967087,74.250404 177.414459,74.250404 230.395752,74.622932 
	C241.267258,90.260529 251.604813,105.525604 261.942383,120.790665 
z"/>
<path fill="#E24508" opacity="1.000000" stroke="none" 
	d="
M414.131042,248.530304 
	C429.858643,256.910522 445.542664,265.753143 461.522064,274.751282 
	C461.817413,324.016693 461.817413,373.126587 461.817413,422.619324 
	C446.047394,422.619324 430.348724,422.619324 414.087494,422.619324 
	C414.087494,364.762939 414.087494,306.877838 414.131042,248.530304 
z"/>
<path fill="#E14509" opacity="1.000000" stroke="none" 
	d="
M879.386353,383.450867 
	C895.407593,383.111084 911.613770,383.812897 927.715332,382.818756 
	C953.079224,381.252838 978.425598,379.019623 1003.681702,376.194855 
	C1031.071899,373.131439 1057.802612,366.528442 1084.677490,358.986145 
	C1081.748047,369.887299 1075.187988,378.874542 1067.901489,387.244629 
	C1046.785889,411.500397 1019.554443,423.454590 987.867188,425.995209 
	C964.259155,427.888031 941.375793,425.126648 919.654358,415.096985 
	C903.814270,407.783020 890.374084,397.420135 879.386353,383.450867 
z"/>
<path fill="#E3470B" opacity="1.000000" stroke="none" 
	d="
M810.706055,509.000061 
	C810.705933,528.454529 810.705933,547.409058 810.705933,566.962097 
	C806.692078,566.962097 803.033813,567.321045 799.507019,566.796326 
	C797.961548,566.566406 796.301025,564.777527 795.343201,563.280396 
	C781.272522,541.286682 767.311768,519.222595 753.324036,497.175781 
	C752.523499,495.914001 751.715332,494.657104 750.305298,492.450592 
	C750.305298,517.719543 750.305298,542.006226 750.305298,566.628662 
	C745.391479,566.628662 741.001953,566.628662 736.304871,566.628662 
	C736.304871,532.947937 736.304871,499.251404 736.304871,465.095215 
	C739.934143,465.095215 743.446899,464.731201 746.820801,465.257355 
	C748.376709,465.499969 750.065857,467.227142 751.008118,468.715729 
	C764.970520,490.773102 778.815552,512.904724 792.697083,535.013367 
	C793.554016,536.378174 794.483398,537.697449 796.325012,538.902527 
	C796.325012,514.463928 796.325012,490.025269 796.325012,465.343323 
	C801.309692,465.343323 805.579163,465.343323 810.706116,465.343323 
	C810.706116,479.705566 810.706116,494.102814 810.706055,509.000061 
z"/>
<path fill="#E3470B" opacity="1.000000" stroke="none" 
	d="
M564.014099,551.942627 
	C557.333618,561.909241 547.647217,566.118835 536.614990,566.693176 
	C524.339661,567.332214 512.005371,566.839539 499.382202,566.839539 
	C499.382202,532.999817 499.382202,499.289734 499.382202,464.604462 
	C513.860840,465.130646 528.231018,464.696442 542.336731,466.422821 
	C557.799011,468.315216 568.043030,479.973511 568.965576,495.654755 
	C569.756165,509.094330 569.609314,522.638672 568.937744,536.089783 
	C568.675964,541.333313 565.845154,546.448669 564.014099,551.942627 
M544.761108,550.507935 
	C551.736084,546.670288 554.760010,540.398560 554.928528,532.810730 
	C555.175903,521.671204 555.153687,510.519135 554.946533,499.377960 
	C554.751221,488.875397 548.976135,481.163513 538.693237,479.720947 
	C530.469177,478.567200 521.954163,479.487946 513.448730,479.487946 
	C513.448730,503.939087 513.448730,528.321838 513.448730,553.368591 
	C523.853333,552.643860 534.167725,555.094421 544.761108,550.507935 
z"/>
<path fill="#E3480C" opacity="1.000000" stroke="none" 
	d="
M923.762695,464.096191 
	C941.767151,466.407776 953.661194,477.300507 956.294800,493.880493 
	C951.380371,493.880493 946.511169,493.880493 941.347961,493.880493 
	C939.303955,487.483765 935.585388,482.187164 928.899597,479.508240 
	C915.545044,474.157104 901.835449,483.448059 901.129761,498.907257 
	C900.583496,510.874512 900.712646,522.896484 901.106384,534.875549 
	C901.448914,545.298096 909.302856,553.063293 919.435974,553.967651 
	C931.093445,555.008179 939.593933,549.205811 941.989197,538.212769 
	C942.821289,534.393860 942.876587,530.405762 943.332275,526.059387 
	C936.201111,526.059387 929.762207,526.059387 922.906494,526.059387 
	C922.906494,521.333740 922.906494,516.970215 922.906494,512.340271 
	C934.233154,512.340271 945.495728,512.340271 957.416565,512.340271 
	C957.474487,528.298279 960.125488,544.817871 947.418457,557.886963 
	C936.590820,569.023132 923.085999,570.361816 909.055908,565.911621 
	C895.482849,561.606445 887.839844,551.486328 886.967773,537.439148 
	C886.134277,524.012329 885.939758,510.435242 886.925049,497.031555 
	C888.475159,475.944550 902.181641,464.104919 923.762695,464.096191 
z"/>
<path fill="#E3470B" opacity="1.000000" stroke="none" 
	d="
M260.498413,567.761353 
	C238.674057,569.024597 224.430481,559.585327 220.523193,540.933472 
	C219.275558,534.977661 219.336395,528.688843 219.309082,522.550110 
	C219.267609,513.234863 219.072388,503.856537 220.013489,494.614044 
	C221.906082,476.027252 236.137299,463.983917 255.125961,464.064880 
	C273.706055,464.144104 288.305969,476.369049 289.674286,494.699188 
	C290.737274,508.938568 290.729065,523.386475 289.645874,537.623718 
	C288.408722,553.885254 277.858704,564.014526 260.498413,567.761353 
M241.939362,482.310486 
	C236.992722,486.322205 234.259796,491.676910 234.098251,497.870026 
	C233.781525,510.011749 233.646957,522.181763 234.117844,534.313660 
	C234.554459,545.562622 242.746658,553.404114 253.534485,553.979065 
	C264.875671,554.583435 274.070831,547.890320 275.018646,536.347595 
	C276.089844,523.302856 276.499939,510.009033 275.231934,497.015320 
	C273.573456,480.020050 257.469604,473.101349 241.939362,482.310486 
z"/>
<path fill="#E3490E" opacity="1.000000" stroke="none" 
	d="
M143.594757,467.462708 
	C143.606277,500.714813 143.606277,533.509705 143.606277,566.658569 
	C138.762817,566.658569 134.242935,566.658569 129.231476,566.658569 
	C129.231476,552.408386 129.231476,538.332214 129.231476,524.029175 
	C114.691811,524.029175 100.638268,524.029175 86.139359,524.029175 
	C86.139359,538.376221 86.139359,552.455750 86.139359,566.770081 
	C81.290222,566.770081 76.884216,566.770081 72.231491,566.770081 
	C72.231491,533.023621 72.231491,499.431732 72.231491,465.461884 
	C76.550186,465.461884 80.947906,465.461884 85.925583,465.461884 
	C85.925583,480.024445 85.925583,494.733887 85.925583,509.721802 
	C100.560699,509.721802 114.624222,509.721802 129.125351,509.721802 
	C129.125351,495.045502 129.125351,480.465271 129.125351,465.180786 
	C133.782761,465.180786 138.023468,465.125000 142.258057,465.260803 
	C142.717957,465.275574 143.142365,466.397278 143.594757,467.462708 
z"/>
<path fill="#E24609" opacity="1.000000" stroke="none" 
	d="
M512.057617,299.427612 
	C524.094971,304.017914 536.092163,309.196106 548.288086,313.853699 
	C564.519409,320.052338 580.905579,325.845642 597.561279,331.954529 
	C592.239136,345.212677 586.671936,358.370392 580.797791,371.389618 
	C580.127075,372.876251 577.767212,374.456726 576.139343,374.513092 
	C567.317749,374.818573 558.477051,374.528625 549.649414,374.728088 
	C546.508484,374.799072 545.023987,373.731598 543.747620,370.828430 
	C533.313599,347.097076 522.679382,323.453796 512.057617,299.427612 
z"/>
<path fill="#E3470B" opacity="1.000000" stroke="none" 
	d="
M1060.020020,554.591919 
	C1065.380249,553.734009 1070.469727,553.476379 1075.083130,551.860229 
	C1081.304565,549.680847 1084.211914,544.472168 1083.987549,538.258179 
	C1083.769653,532.222778 1080.757935,527.895813 1074.141357,525.960327 
	C1066.987793,523.867798 1059.593262,522.603455 1052.311768,520.943237 
	C1036.239380,517.278625 1029.319702,509.542084 1029.075195,495.006744 
	C1028.813965,479.461121 1036.542358,469.271240 1051.994141,465.549377 
	C1067.794922,461.743500 1082.279907,465.068207 1095.879639,474.727417 
	C1093.246826,478.491425 1090.717041,482.108276 1087.941528,486.076233 
	C1079.436523,479.859283 1070.283936,476.451416 1059.871338,477.971924 
	C1057.108276,478.375458 1054.294678,479.045746 1051.740601,480.143463 
	C1045.732666,482.725616 1043.016357,487.640930 1043.136597,494.059570 
	C1043.256348,500.450928 1047.146729,504.175446 1052.790771,505.962860 
	C1058.001709,507.613159 1063.415894,508.621460 1068.739868,509.915466 
	C1071.160400,510.503815 1073.602661,511.018127 1075.995239,511.704498 
	C1091.967896,516.286560 1098.244629,524.182007 1098.002075,539.311035 
	C1097.778564,553.261719 1089.715332,563.273438 1074.802368,566.492798 
	C1056.760254,570.387634 1039.795166,567.773071 1024.397095,555.563721 
	C1027.256592,551.922791 1029.965576,548.473633 1033.062134,544.530884 
	C1040.789551,551.052979 1049.638550,554.306091 1060.020020,554.591919 
z"/>
<path fill="#E24508" opacity="1.000000" stroke="none" 
	d="
M663.053955,351.916107 
	C678.711731,355.067932 694.345764,358.731964 710.383301,362.496643 
	C710.786682,382.523743 710.786682,402.450134 710.786682,422.688477 
	C694.917664,422.688477 679.226562,422.688477 663.030212,422.688477 
	C663.030212,399.218201 663.030212,375.823273 663.053955,351.916107 
z"/>
<path fill="#033499" opacity="1.000000" stroke="none" 
	d="
M262.322693,120.984703 
	C251.604813,105.525604 241.267258,90.260529 230.847672,74.660828 
	C250.996384,74.326202 271.227112,74.326202 291.814514,74.326202 
	C291.814514,89.911537 291.814514,105.563728 291.814514,121.178734 
	C282.100922,121.178734 272.401947,121.178734 262.322693,120.984703 
z"/>
<path fill="#E3470B" opacity="1.000000" stroke="none" 
	d="
M378.931702,467.320404 
	C378.941162,496.082764 378.941162,524.374268 378.941162,553.192993 
	C395.839264,553.192993 412.396484,553.192993 429.300079,553.192993 
	C429.300079,557.942322 429.300079,562.169617 429.300079,566.706604 
	C408.013245,566.706604 386.774963,566.706604 365.167969,566.706604 
	C365.167969,533.079285 365.167969,499.383881 365.167969,465.108826 
	C369.115417,465.108826 373.061951,465.028870 376.998932,465.186981 
	C377.661224,465.213623 378.282166,466.269318 378.931702,467.320404 
z"/>
<path fill="#E24407" opacity="1.000000" stroke="none" 
	d="
M645.253784,566.941406 
	C644.518250,565.822998 644.034241,564.751343 644.032898,563.679016 
	C643.993408,531.688843 644.000793,499.698639 644.009521,467.708405 
	C644.009705,467.057434 644.113525,466.406494 644.196533,465.432434 
	C648.654358,465.432434 653.044128,465.432434 657.759277,465.432434 
	C657.759277,499.054474 657.759277,532.642883 657.759277,566.987793 
	C653.894226,566.987793 649.812256,566.987793 645.253784,566.941406 
z"/>
<path fill="#814B5A" opacity="1.000000" stroke="none" 
	d="
M1097.169678,312.603394 
	C1097.014038,292.524780 1097.039185,272.073395 1097.016724,251.622070 
	C1096.992676,229.670395 1096.923950,207.718735 1096.944580,185.280243 
	C1097.335205,187.914642 1097.928833,191.035355 1097.934448,194.157150 
	C1098.000732,230.537140 1097.993530,266.917328 1097.951538,303.297363 
	C1097.947998,306.275360 1097.546143,309.252899 1097.169678,312.603394 
z"/>
<path fill="#E14509" opacity="1.000000" stroke="none" 
	d="
M1085.298584,359.136658 
	C1085.168823,358.798248 1085.335693,358.518127 1085.747070,358.163757 
	C1085.859375,358.458008 1085.727295,358.826477 1085.298584,359.136658 
z"/>
<path fill="#FFFFFF" opacity="1.000000" stroke="none" 
	d="
M1023.507751,360.508789 
	C998.436035,383.694641 954.423096,383.164246 930.448181,364.238708 
	C915.126770,352.144196 907.215820,336.028137 904.099670,317.251923 
	C903.177979,311.698395 902.886780,305.984985 902.878418,300.343994 
	C902.823853,263.513428 901.945251,226.646835 903.287415,189.863220 
	C904.364563,160.340637 917.010498,136.236923 946.137756,125.004807 
	C970.703552,115.531654 995.218628,117.271248 1017.276917,132.658432 
	C1033.576172,144.028320 1042.000732,160.809082 1044.927979,180.216476 
	C1046.039062,187.582016 1046.301270,195.131790 1046.307617,202.598145 
	C1046.337524,237.926819 1046.527466,273.262726 1045.875977,308.581604 
	C1045.532837,327.178772 1039.007324,343.872467 1025.969849,357.624115 
	C1025.182617,358.454529 1024.501953,359.386047 1023.507751,360.508789 
z"/>
<path fill="#FFFDFC" opacity="1.000000" stroke="none" 
	d="
M544.421265,550.692810 
	C534.167725,555.094421 523.853333,552.643860 513.448730,553.368591 
	C513.448730,528.321838 513.448730,503.939087 513.448730,479.487946 
	C521.954163,479.487946 530.469177,478.567200 538.693237,479.720947 
	C548.976135,481.163513 554.751221,488.875397 554.946533,499.377960 
	C555.153687,510.519135 555.175903,521.671204 554.928528,532.810730 
	C554.760010,540.398560 551.736084,546.670288 544.421265,550.692810 
z"/>
<path fill="#FFFEFD" opacity="1.000000" stroke="none" 
	d="
M242.241486,482.098663 
	C257.469604,473.101349 273.573456,480.020050 275.231934,497.015320 
	C276.499939,510.009033 276.089844,523.302856 275.018646,536.347595 
	C274.070831,547.890320 264.875671,554.583435 253.534485,553.979065 
	C242.746658,553.404114 234.554459,545.562622 234.117844,534.313660 
	C233.646957,522.181763 233.781525,510.011749 234.098251,497.870026 
	C234.259796,491.676910 236.992722,486.322205 242.241486,482.098663 
z"/>
</svg>